# xmcd
#
# Track frame offsets: 
#        150
#        14341
#        25189
#        40028
#        55121
#        66996
#        77383
#        90827
#        102350
#        110820
#        119888
#        133332
#        146472
#        164945
#        174157
#
# Disc length: 2506 seconds
#
# Revision: 6
# Processed by: cddbd v1.5.2PL0 Copyright (c) Steve Scherf et al.
# Submitted via: ExactAudioCopy v0.99pb5
#
DISCID=cc09c80f
DTITLE=Simon and Garfunkel - Sounds Of Silence (JP-Import Mini-Lp)
DYEAR=2001
DGENRE=Folk-Rock
TTITLE0=The Sound Of Silence
TTITLE1=Leaves That Are Green
TTITLE2=Blessed
TTITLE3=Kathy's Song
TTITLE4=Somewhere They Can't Find Me
TTITLE5=Angie
TTITLE6=Richard Cory
TTITLE7=A Most Peculiar Man
TTITLE8=April Come She Will
TTITLE9=We've Got A Groovy Thing Goin'
TTITLE10=I Am A Rock
TTITLE11=Blues Run The Game
TTITLE12=Barbriallen (Demo)
TTITLE13=Rose Of Aberdeen (Demo)
TTITLE14=Roving Gambler (Demo)
EXTD=YEAR: 1966
EXTT0=
EXTT1=
EXTT2=
EXTT3=
EXTT4=
EXTT5=
EXTT6=
EXTT7=
EXTT8=
EXTT9=
EXTT10=
EXTT11=
EXTT12=
EXTT13=
EXTT14=
PLAYORDER=
